<svg id="Layer_5" enable-background="new 0 0 64 64" height="300" viewBox="0 0 64 64" width="300" xmlns="http://www.w3.org/2000/svg" version="1.1" xmlns:xlink="http://www.w3.org/1999/xlink" xmlns:svgjs="http://svgjs.dev/svgjs"><g width="100%" height="100%" transform="matrix(1,0,0,1,0,0)"><g><path d="m52 37h-20c-1.103 0-2 .897-2 2v12c0 1.103.897 2 2 2h20c1.103 0 2-.897 2-2v-12c0-1.103-.897-2-2-2zm-10 2c1.103 0 2 .897 2 2s-.897 2-2 2-2-.897-2-2 .897-2 2-2zm-10 12v-12h6.556c-.344.591-.556 1.268-.556 2 0 .995.378 1.895.982 2.596-2.919 1.194-4.982 4.061-4.982 7.404zm4 0c0-3.309 2.691-6 6-6s6 2.691 6 6zm14 0c0-3.343-2.063-6.21-4.982-7.404.604-.701.982-1.601.982-2.596 0-.732-.212-1.409-.556-2h6.556l.002 12z" fill="#21318d" fill-opacity="1" data-original-color="#000000ff" stroke="none" stroke-opacity="1"/><path d="m58 55v-17c0-2.757-2.243-5-5-5h-22c-.925 0-1.781.269-2.525.709-1.87-1.767-4.144-2.989-6.658-3.562l-.397-1.587c2.367-.876 4.13-2.993 4.5-5.56h.08c2.206 0 4-1.794 4-4 0-1.365-.689-2.57-1.736-3.292l.776-1.552c.628-1.255.96-2.661.96-4.066 0-5.012-4.078-9.09-9.09-9.09h-4.438c-2.935 0-5.593 1.524-7.074 4.018-3.016.233-5.398 2.762-5.398 5.836 0 .902.214 1.808.618 2.618l1.118 2.235c-1.047.723-1.736 1.928-1.736 3.293 0 2.206 1.794 4 4 4h.08c.37 2.567 2.133 4.683 4.5 5.56l-.397 1.588c-6.518 1.488-11.183 7.289-11.183 14.033 0 8.172 6.647 14.819 14.819 14.819h7.282c.465 2.279 2.484 4 4.899 4h28c2.757 0 5-2.243 5-5 0-1.654-1.346-3-3-3zm-30-1v-16c0-1.654 1.346-3 3-3h22c1.654 0 3 1.346 3 3v17h-28zm-6.205-21.799-.598 6.583-2.857-2.857 3.053-3.815c.134.029.27.054.402.089zm-4.795 2.198-2.91-3.638.446-1.785c.154.011.308.024.464.024h4c.156 0 .31-.013.464-.023l.446 1.785zm9-13.399v-4c1.103 0 2 .897 2 2s-.897 2-2 2zm-18 0c-1.103 0-2-.897-2-2s.897-2 2-2zm.018-6h-.018c-.125 0-.242.026-.364.037l-1.229-2.458c-.266-.534-.407-1.131-.407-1.725 0-2.125 1.729-3.854 3.854-3.854h.764l.276-.553c1.064-2.126 3.201-3.447 5.578-3.447h4.438c3.909 0 7.09 3.181 7.09 7.09 0 1.097-.259 2.192-.749 3.171l-.888 1.776c-.121-.011-.239-.037-.363-.037h-.09c-.273-1.154-1.201-2.063-2.417-2.265l-7.37-1.229c-1.23-.204-2.123-1.258-2.123-2.506h-2c0 .642.132 1.254.372 1.811l-2.917 1.749c-.859.516-1.392 1.444-1.437 2.44zm1.982 7v-6.867c0-.35.187-.679.485-.858l3.073-1.844c.615.533 1.38.906 2.236 1.049l7.37 1.229c.484.079.836.494.836.985v6.306c0 2.757-2.243 5-5 5h-4c-2.757 0-5-2.243-5-5zm2.609 10.113 3.051 3.812-2.857 2.857-.598-6.578c.133-.034.27-.06.404-.091zm3.453 19.777c-4.026-.448-7.062-3.839-7.062-7.89h-2c0 5.071 3.801 9.317 8.841 9.878l.159.018v3.104h-.181c-7.068 0-12.819-5.751-12.819-12.819 0-4.95 2.923-9.303 7.26-11.276l.937 10.312 5.803-5.803 5.803 5.803.938-10.319c1.184.538 2.275 1.26 3.244 2.152-.612.829-.985 1.843-.985 2.95v13.184c-.314-.112-.648-.184-1-.184h-.171c-.413-1.164-1.525-2-2.829-2h-1.172c-.801 0-1.555.313-2.121.879l-2.074 2.074zm1.938 5.11v-3.586l2.121-2.121c.187-.187.444-.293.707-.293h1.172c.552 0 1 .448 1 1v1h2c.552 0 1 .448 1 1v2c0 .552-.448 1-1 1zm38 4h-28c-1.309 0-2.412-.847-2.821-2.018 1.223-.074 2.242-.875 2.637-1.982h30.184c.552 0 1 .448 1 1 0 1.654-1.346 3-3 3z" fill="#21318d" fill-opacity="1" data-original-color="#000000ff" stroke="none" stroke-opacity="1"/><circle cx="13" cy="16" r="1" fill="#21318d" fill-opacity="1" data-original-color="#000000ff" stroke="none" stroke-opacity="1"/><circle cx="21" cy="16" r="1" fill="#21318d" fill-opacity="1" data-original-color="#000000ff" stroke="none" stroke-opacity="1"/><path d="m22 20v-1h-10v1c0 2.757 2.243 5 5 5s5-2.243 5-5zm-7.829 1h5.658c-.413 1.164-1.525 2-2.829 2s-2.416-.836-2.829-2z" fill="#21318d" fill-opacity="1" data-original-color="#000000ff" stroke="none" stroke-opacity="1"/><path d="m58.438 8h-16.876c-2.516 0-4.562 2.046-4.562 4.562 0 .37.046.742.137 1.106l1.219 4.877c.508 2.034 2.328 3.455 4.425 3.455h3.219v1c0 1.654 1.346 3 3 3 .939 0 1.837-.448 2.399-1.2l2.101-2.8h3.719c2.098 0 3.917-1.421 4.426-3.455l1.22-4.878c.089-.363.135-.735.135-1.105 0-2.516-2.046-4.562-4.562-4.562zm2.486 5.184-1.219 4.877c-.286 1.141-1.309 1.939-2.486 1.939h-4.719l-2.7 3.601c-.188.25-.487.399-.8.399-.552 0-1-.448-1-1v-3h-5.219c-1.178 0-2.2-.798-2.486-1.939l-1.218-4.876c-.051-.206-.077-.415-.077-.623 0-1.413 1.149-2.562 2.562-2.562h16.877c1.412 0 2.561 1.149 2.561 2.562 0 .208-.026.417-.076.622z" fill="#21318d" fill-opacity="1" data-original-color="#000000ff" stroke="none" stroke-opacity="1"/><path d="m43 12h14v2h-14z" fill="#21318d" fill-opacity="1" data-original-color="#000000ff" stroke="none" stroke-opacity="1"/><path d="m55 16h2v2h-2z" fill="#21318d" fill-opacity="1" data-original-color="#000000ff" stroke="none" stroke-opacity="1"/><path d="m43 16h10v2h-10z" fill="#21318d" fill-opacity="1" data-original-color="#000000ff" stroke="none" stroke-opacity="1"/><circle cx="17" cy="41" r="1" fill="#21318d" fill-opacity="1" data-original-color="#000000ff" stroke="none" stroke-opacity="1"/><circle cx="17" cy="45" r="1" fill="#21318d" fill-opacity="1" data-original-color="#000000ff" stroke="none" stroke-opacity="1"/><circle cx="17" cy="49" r="1" fill="#21318d" fill-opacity="1" data-original-color="#000000ff" stroke="none" stroke-opacity="1"/></g></g></svg>