<svg height="300" viewBox="0 0 60 60" width="300" xmlns="http://www.w3.org/2000/svg" version="1.1" xmlns:xlink="http://www.w3.org/1999/xlink" xmlns:svgjs="http://svgjs.dev/svgjs"><g width="100%" height="100%" transform="matrix(1,0,0,1,0,0)"><g id="Page-1" fill="none" fill-rule="evenodd"><g id="056---Review-Writing" fill="rgb(0,0,0)" fill-rule="nonzero"><path id="Shape" d="m46 36c-5.5228475 0-10 4.4771525-10 10s4.4771525 10 10 10 10-4.4771525 10-10c-.0060624-5.5203344-4.4796656-9.9939376-10-10zm0 18c-4.418278 0-8-3.581722-8-8s3.581722-8 8-8 8 3.581722 8 8c-.0049599 4.4162219-3.5837781 7.9950401-8 8z" fill="#21318d" fill-opacity="1" data-original-color="#000000ff" stroke="none" stroke-opacity="1"/><path id="Shape" d="m46 45c-.4851707-.000473-.9000069-.3491365-.9839455-.8269912-.0839386-.4778548.1872399-.9470217.6432053-1.1128119.4559653-.1657902.9651545.0196329 1.2077402.4398031.2843876.4596821.882589.61017 1.3506397.3397768s.6365131-.8637835.3803603-1.3397768c-.3620629-.6087671-.9282899-1.0694024-1.598-1.3v-.2c0-.5522847-.4477153-1-1-1s-1 .4477153-1 1v.184c-1.3765475.4848523-2.2026937 1.8918441-1.9553873 3.330178s1.49595 2.4885874 2.9553873 2.485822c.4851707.000473.9000069.3491365.9839455.8269912.0839386.4778548-.1872399.9470217-.6432053 1.1128119-.4559653.1657902-.9651545-.0196329-1.2077402-.4398031-.2843876-.4596821-.882589-.61017-1.3506397-.3397768s-.6365131.8637835-.3803603 1.3397768c.3625581.6091337.9295478 1.0698128 1.6 1.3v.2c0 .5522847.4477153 1 1 1s1-.4477153 1-1v-.184c1.3769108-.4849733 2.2030823-1.8925391 1.9552305-3.3311676-.2478517-1.4386286-1.4974125-2.4885802-2.9572305-2.4848324z" fill="#21318d" fill-opacity="1" data-original-color="#000000ff" stroke="none" stroke-opacity="1"/><path id="Shape" d="m48 32.16v-12.16c.0004322-.2455968-.0223355-.4906854-.068-.732l8.989-9c.005-.005.011-.006.016-.01s.005-.011.01-.016l2.153-2.15c.5754021-.56948475.8991618-1.34543193.8991618-2.155s-.3237597-1.58551525-.8991618-2.155l-2.882-2.882c-.5698338-.57620291-1.3466172-.90031284-2.157-.9h-.01c-.8054418.00094615-1.5767888.32519291-2.141.9l-2.156 2.153-.016.01s-.006.012-.01.016l-10.534 10.526c-.2335384.2487806-.4048756.549306-.5.877l-.411 1.518h-34.283c-2.209139 0-4 1.790861-4 4v24c0 2.209139 1.790861 4 4 4h1v4.87c-.00248666 1.1481599.62524293 2.2050932 1.63462716 2.7522868s2.2376235.4963928 3.19837284-.1322868l11.582-7.49h10.745c1.0265095 7.138328 7.3107872 12.3268984 14.5143737 11.9836922 7.2035864-.3432062 12.9661123-6.1057321 13.3093185-13.3093185.3432062-7.2035865-4.8453642-13.4878642-11.9836922-14.5143737zm5.328-29.851c.191916-.19692289.4550275-.30829471.73-.309.2796094.00052297.5473004.11329183.743.313l2.886 2.887c.1992727.19558478.3119858.46278324.313.742-.0007053.27497253-.1120771.53808396-.309.73l-1.465 1.465-2.179-2.179-2.18-2.18zm-2.88 2.878 1.475 1.476-2.835 2.837c-.2763202.24700546-.3933641.6265802-.3041326.9863055s.3701018.6405956.7298271.7298271.7393-.0278124.9863055-.3041326l2.835-2.835 1.475 1.475-9.285 9.286-1.475-1.476 3.56-3.562c.3397768-.3967603.3169323-.9881942-.0524368-1.3575632-.369369-.3693691-.9608029-.3922136-1.3575632-.0524368l-3.558 3.558-1.48-1.479zm-10.2 11.2 3.352 3.356-4.6 1.226zm-8.248 29.613h-18c-.5522847 0-1 .4477153-1 1s.4477153 1 1 1h3.732l-8.986 5.812c-.34674622.2246791-.78841723.2423956-1.1520453.0462114-.36362808-.1961843-.59133837-.5750446-.5939547-.9882114v-4.87h3c.5522847 0 1-.4477153 1-1s-.4477153-1-1-1h-6c-1.1045695 0-2-.8954305-2-2v-24c0-1.1045695.8954305-2 2-2h33.738l-.669 2.449c-.1620454.6070646-.033556 1.2549543.3478991 1.7542319.3814552.4992776.9727891.7935476 1.6011009.7967681.1819916-.0000984.3631909-.0239669.539-.071l5.978-1.629c.1628087-.0468052.3190473-.1140046.465-.2v10.9c-.7946922.0047381-1.5875445.076998-2.37.216.3657373-.5323117.460516-1.2053886.256-1.818-.235521-.7195444-.8571589-1.2444143-1.606-1.356l-1.7-.26-.763-1.616c-.3239513-.7109312-1.0332397-1.1671834-1.8145-1.1671834s-1.4905487.4562522-1.8145 1.1671834l-.764 1.619-1.7.259c-.7503578.1101826-1.3738403.635302-1.61 1.356-.2544818.7418352-.0678692 1.5637824.482 2.123l1.255 1.277-.3 1.81c-.1327661.7759003.1891378 1.5594976.829 2.018.0978392.0607478.2009167.1126212.308.155-1.7462359 2.38386-2.6877466 5.2619826-2.688 8.217zm3.634-13.241-1.613-1.74 2.229-.34c.3277427-.0513348.6086944-.2618612.75-.562l1-2.1.99 2.1c.1420746.3011966.4247662.5119031.754.562l2.229.336-1.613 1.744c-.1485321.1544358-.2435312.3524967-.271.565-.959847.4491061-1.86564 1.0056656-2.7 1.659l-1.864.949.38-2.31c.0523691-.3144168-.0482894-.634964-.271-.863zm10.366 25.241c-6.627417 0-12-5.372583-12-12s5.372583-12 12-12 12 5.372583 12 12c-.0071648 6.624447-5.375553 11.9928352-12 12z" fill="#21318d" fill-opacity="1" data-original-color="#000000ff" stroke="none" stroke-opacity="1"/><path id="Shape" d="m28.282 29.037-1.7-.258-.769-1.621c-.329243-.702562-1.035117-1.1513075-1.811-1.1513075s-1.481757.4487455-1.811 1.1513075l-.769 1.621-1.7.258c-.7522652.1161072-1.375.6460119-1.61 1.37-.2495704.7409137-.0608493 1.5592209.488 2.116l1.25 1.277-.3 1.807c-.1366592.7802435.1884254 1.5694009.835 2.027.6173535.4435419 1.4350876.4914378 2.1.123l1.515-.831 1.513.828c.664799.3689356 1.4828172.3210231 2.1-.123.6465746-.4575991.9716592-1.2467565.835-2.027l-.3-1.807 1.255-1.274c.5488493-.5567791.7375704-1.3750863.488-2.116-.2348392-.7237018-.8571145-1.2535446-1.609-1.37zm-1.913 3.718c-.2241058.2276958-.3259267.5487661-.274.864l.379 2.381-1.994-1.091c-.2990791-.163642-.6609209-.163642-.96 0l-2 1.02.38-2.31c.0519267-.3152339-.0498942-.6363042-.274-.864l-1.614-1.741 2.228-.337c.3288117-.0496859.6114132-.2595756.754-.56l.998-2.117c.0049923.0060187.0090388.0127627.012.02l1 2.1c.1425868.3004244.4251883.5103141.754.56l2.224.334z" fill="#21318d" fill-opacity="1" data-original-color="#000000ff" stroke="none" stroke-opacity="1"/><path id="Shape" d="m14.282 29.037-1.7-.258-.769-1.621c-.329243-.702562-1.035117-1.1513075-1.811-1.1513075-.77588295 0-1.48175697.4487455-1.811 1.1513075l-.771 1.621-1.7.258c-.75226516.1161072-1.37499996.6460119-1.61 1.37-.24906074.741286-.05955341 1.5596483.49 2.116l1.25 1.277-.3 1.807c-.13665917.7802435.18842539 1.5694009.835 2.027.61735354.4435419 1.43508765.4914378 2.1.123l1.515-.831 1.513.828c.664799.3689356 1.4828172.3210231 2.1-.123.6465746-.4575991.9716592-1.2467565.835-2.027l-.3-1.807 1.255-1.274c.5488493-.5567791.7375704-1.3750863.488-2.116-.2348392-.7237018-.8571145-1.2535446-1.609-1.37zm-1.913 3.718c-.2241058.2276958-.3259267.5487661-.274.864l.379 2.381-1.994-1.091c-.2990791-.163642-.66092087-.163642-.96 0l-1.995 1.02.38-2.31c.05192671-.3152339-.0498942-.6363042-.274-.864l-1.614-1.741 2.228-.337c.32918416-.0493755.61222112-.2593102.755-.56l.992-2.117c.00499234.0060187.0090388.0127627.012.02l1 2.1c.1425868.3004244.4251883.5103141.754.56l2.224.334z" fill="#21318d" fill-opacity="1" data-original-color="#000000ff" stroke="none" stroke-opacity="1"/></g></g></g></svg>