<svg id="Layer_1" viewBox="0 0 512 512" xmlns="http://www.w3.org/2000/svg" data-name="Layer 1" width="300" height="300" version="1.1" xmlns:xlink="http://www.w3.org/1999/xlink" xmlns:svgjs="http://svgjs.dev/svgjs"><g width="100%" height="100%" transform="matrix(1,0,0,1,0,0)"><path d="m98.463 105.531h61.654c6.916 0 12.543-5.627 12.543-12.544v-14.598c0-11.662-7.755-21.708-18.833-26.138 2.804-4.456 4.432-9.721 4.432-15.362 0-15.982-13.002-28.984-28.984-28.984s-28.955 13.002-28.955 28.984c0 5.64 1.626 10.904 4.426 15.359-11.091 4.43-18.855 14.477-18.855 26.141v14.598c0 6.917 5.64 12.544 12.571 12.544zm30.812-81.61c7.151 0 12.969 5.817 12.969 12.969s-5.817 12.94-12.969 12.94-12.939-5.805-12.939-12.94 5.805-12.969 12.939-12.969zm-27.368 54.469c0-6.8 7.107-12.544 15.52-12.544h23.727c8.397 0 15.491 5.744 15.491 12.544v11.126h-54.737v-11.126zm305.656-26.141c2.8-4.456 4.426-9.72 4.426-15.36 0-15.982-12.989-28.984-28.956-28.984s-28.984 13.002-28.984 28.984c0 5.641 1.628 10.906 4.432 15.362-11.077 4.431-18.832 14.476-18.832 26.138v14.598c0 6.917 5.627 12.544 12.543 12.544h61.653c6.933 0 12.572-5.627 12.572-12.544v-14.598c0-11.664-7.765-21.71-18.855-26.14zm-24.53-28.328c7.136 0 12.94 5.817 12.94 12.969s-5.805 12.94-12.94 12.94-12.969-5.805-12.969-12.94 5.817-12.969 12.969-12.969zm27.369 65.595h-54.737v-11.126c0-6.8 7.094-12.544 15.491-12.544h23.726c8.413 0 15.521 5.744 15.521 12.544v11.126zm-185.06 16.015h61.625c6.933 0 12.572-5.627 12.572-12.544v-14.598c0-11.669-7.764-21.719-18.852-26.146 2.798-4.454 4.423-9.717 4.423-15.354 0-15.982-12.989-28.984-28.956-28.984s-28.956 13.002-28.956 28.984c0 5.637 1.625 10.9 4.423 15.354-11.087 4.427-18.851 14.477-18.851 26.146v14.598c0 6.917 5.64 12.544 12.571 12.544zm30.812-81.61c7.136 0 12.94 5.817 12.94 12.969s-5.805 12.94-12.94 12.94-12.94-5.805-12.94-12.94 5.805-12.969 12.94-12.969zm-27.368 54.469c0-6.8 7.094-12.544 15.491-12.544h23.754c8.397 0 15.492 5.744 15.492 12.544v11.126h-54.737zm189.624 42.561h-324.511c-4.423 0-8.008 3.585-8.008 8.008v37.56c0 4.423 3.585 8.008 8.008 8.008h10.092l117.227 117.228v44.191c0 2.124.844 4.161 2.346 5.662l53.858 53.858c1.531 1.532 3.58 2.346 5.664 2.346 1.031 0 2.072-.199 3.062-.609 2.992-1.239 4.943-4.159 4.943-7.398v-98.05l117.227-117.228h10.092c4.423 0 8.008-3.585 8.008-8.008v-37.56c0-4.423-3.585-8.008-8.008-8.008zm-316.503 16.016h308.495v21.544h-308.495zm135.326 195.661v-36.184h37.843v74.026l-37.843-37.843zm42.535-52.199h-47.226l-105.902-105.902h259.03zm-78.748 79.384c7.83-8.438 12.629-19.725 12.629-32.117 0-26.063-21.204-47.268-47.269-47.268s-47.268 21.204-47.268 47.268c0 12.39 4.798 23.676 12.626 32.114-26.057 4.334-45.848 24.745-45.848 49.212v22.252c0 14.497 11.286 26.402 25.54 27.429v8.173c0 4.423 3.585 8.008 8.008 8.008h21.048v21.048c0 4.423 3.585 8.008 8.008 8.008h35.772c4.423 0 8.008-3.585 8.008-8.008v-21.048h21.048c4.423 0 8.008-3.585 8.008-8.008v-8.173c14.255-1.028 25.54-12.933 25.54-27.429v-22.252c0-24.461-19.791-44.868-45.851-49.209zm-34.639-63.369c17.232 0 31.253 14.02 31.253 31.252s-14.021 31.252-31.253 31.252-31.252-14.02-31.252-31.252 14.02-31.252 31.252-31.252zm38.934 162.425h-21.048c-4.423 0-8.008 3.585-8.008 8.008v21.048h-19.757v-21.048c0-4.423-3.585-8.008-8.008-8.008h-21.048v-19.757h21.048c4.423 0 8.008-3.585 8.008-8.008v-21.048h19.757v21.048c0 4.423 3.585 8.008 8.008 8.008h21.048zm25.54-27.595c0 5.657-4.121 10.361-9.524 11.309v-11.479c0-4.423-3.585-8.008-8.008-8.008h-21.048v-21.048c0-4.423-3.585-8.008-8.008-8.008h-35.772c-4.423 0-8.008 3.585-8.008 8.008v21.048h-21.048c-4.423 0-8.008 3.585-8.008 8.008v11.479c-5.403-.948-9.524-5.652-9.524-11.309v-22.252c0-18.78 18.013-34.059 40.152-34.059h48.614c22.156 0 40.182 15.278 40.182 34.059z" fill="#21318d" fill-opacity="1" data-original-color="#000000ff" stroke="none" stroke-opacity="1"/></g></svg>