<svg id="Layer_1" enable-background="new 0 0 512 512" height="300" viewBox="0 0 512 512" width="300" xmlns="http://www.w3.org/2000/svg" version="1.1" xmlns:xlink="http://www.w3.org/1999/xlink" xmlns:svgjs="http://svgjs.dev/svgjs"><g width="100%" height="100%" transform="matrix(1,0,0,1,0,0)"><path d="m492.305 175.696c-10.935-8.732-24.611-12.686-38.52-11.128-7.789.872-15.125 3.415-21.608 7.404v-41.954c0-4.244-1.686-8.313-4.687-11.314l-114.017-114.017c-3-3.001-7.07-4.687-11.313-4.687h-243.54c-32.323 0-58.62 26.297-58.62 58.62v394.76c0 32.323 26.297 58.62 58.62 58.62h314.937c32.323 0 58.62-26.297 58.62-58.62v-118.458l68.368-85.601c18.026-22.57 14.33-55.598-8.24-73.625zm-34.961 20.673c5.413-.605 10.735.932 14.99 4.331 8.783 7.015 10.223 19.868 3.207 28.652l-2.497 3.126-31.858-25.445 2.497-3.126c3.398-4.256 8.25-6.932 13.661-7.538zm-100.835 182.017-31.859-25.446 96.565-120.904 31.859 25.445zm-47.189 3.265 22.577 18.032-26.905 10.536zm8.839-327.024 59.39 59.391h-59.39zm82.018 398.753c0 14.679-11.941 26.62-26.62 26.62h-314.937c-14.679 0-26.62-11.941-26.62-26.62v-394.76c0-14.678 11.941-26.62 26.62-26.62h227.539v98.018c0 8.836 7.163 16 16 16h98.018v61.084l-116.757 146.184c-1.753 2.194-2.896 4.813-3.317 7.589l-10.899 71.952c-.856 5.652 1.368 11.331 5.834 14.898 2.882 2.302 6.414 3.498 9.987 3.498 1.966 0 3.943-.362 5.832-1.102l67.763-26.537c2.615-1.024 4.915-2.719 6.668-4.913l34.89-43.684v78.393zm-149.031-261.748c0 8.836-7.163 16-16 16h-133.945c-8.837 0-16-7.164-16-16s7.163-16 16-16h133.945c8.837 0 16 7.164 16 16zm0 101.917c0 8.837-7.163 16-16 16h-133.945c-8.837 0-16-7.163-16-16s7.163-16 16-16h133.945c8.837 0 16 7.163 16 16zm0 101.917c0 8.837-7.163 16-16 16h-133.945c-8.837 0-16-7.163-16-16s7.163-16 16-16h133.945c8.837 0 16 7.163 16 16z" fill="#21318d" fill-opacity="1" data-original-color="#000000ff" stroke="none" stroke-opacity="1"/></g></svg>