<svg id="Layer_1" viewBox="0 0 512 512" xmlns="http://www.w3.org/2000/svg" data-name="Layer 1" width="300" height="300" version="1.1" xmlns:xlink="http://www.w3.org/1999/xlink" xmlns:svgjs="http://svgjs.dev/svgjs"><g width="100%" height="100%" transform="matrix(1,0,0,1,0,0)"><path d="m488.562 144.891-63.655-36.751a7.2 7.2 0 0 0 -10.806 6.236v4.055c-22.026-4.22-43.4 1.225-61.042 15.747-26.306 21.643-40.508 60.659-36.186 99.4a7.2 7.2 0 0 0 13.873 1.8c22.829-58.848 37.287-59.62 83.353-58.426v10.919a7.2 7.2 0 0 0 10.8 6.247l63.655-36.751a7.2 7.2 0 0 0 0-12.474zm-307.309 90.485a7.2 7.2 0 0 0 13.872-1.8c4.324-38.737-9.88-77.753-36.186-99.4-17.638-14.522-39.016-19.966-61.04-15.747v-4.055a7.2 7.2 0 0 0 -10.806-6.236l-63.652 36.753a7.2 7.2 0 0 0 0 12.474l63.659 36.751a7.2 7.2 0 0 0 10.8-6.247v-10.919c46.068-1.194 60.526-.422 83.354 58.426zm42.174-148.776a16.173 16.173 0 0 1 -13.174-6.165 12.421 12.421 0 0 1 0-15.231l37.605-50.038a17.158 17.158 0 0 1 26.348 0l37.616 50.034a12.417 12.417 0 0 1 0 15.231 16.165 16.165 0 0 1 -13.172 6.169h-7.4v109.75a7.2 7.2 0 0 1 -7.2 7.2h-46.03a7.206 7.206 0 0 1 -7.2-7.2v-109.75zm34.54 196.746a97.746 97.746 0 1 0 97.749 97.74 97.846 97.846 0 0 0 -97.749-97.74zm0 181.082a83.337 83.337 0 1 1 83.341-83.342 83.425 83.425 0 0 1 -83.341 83.342zm32.058-76.889c6.741 8.089 8.532 18.021 4.908 27.242-4.126 10.539-14.4 17.846-27.478 19.544-.535.072-1.091.1-1.637.164v10.025a7.2 7.2 0 0 1 -14.409 0v-10.519c-14.575-2.521-28.109-11.341-32.03-28.435a7.2 7.2 0 1 1 14.038-3.222c3.378 14.676 18.587 19.472 32.182 17.7 7.792-1.009 13.74-4.94 15.921-10.518 1.668-4.24.752-8.779-2.573-12.762-5.38-6.463-11.228-7.348-19.307-8.552a74.323 74.323 0 0 1 -15.149-3.448c-.071-.02-.144-.051-.226-.082-12.988-5.27-20.646-15.407-20.471-27.129.177-11.99 8.347-22.724 20.8-27.345a43.563 43.563 0 0 1 6.813-1.914v-10.621a7.2 7.2 0 1 1 14.406 0v10.446c13.2 2.336 24.483 11.639 29.958 26.1a7.2 7.2 0 0 1 -13.471 5.094c-5.506-14.532-18.649-20.8-32.7-15.592-6.731 2.5-11.321 8.141-11.4 14.048-.081 5.681 3.952 10.477 11.362 13.513a61.612 61.612 0 0 0 12.205 2.676c9.078 1.358 19.359 2.9 28.252 13.585zm-32.058 115.461a121.91 121.91 0 1 1 121.914-121.915 122.051 122.051 0 0 1 -121.914 121.915z" fill-rule="evenodd" fill="#21318d" fill-opacity="1" data-original-color="#000000ff" stroke="none" stroke-opacity="1"/></g></svg>