<svg height="300" viewBox="0 0 60 61" width="300" xmlns="http://www.w3.org/2000/svg" version="1.1" xmlns:xlink="http://www.w3.org/1999/xlink" xmlns:svgjs="http://svgjs.dev/svgjs"><g width="100%" height="100%" transform="matrix(1,0,0,1,0,0)"><g id="018---Improved-Decision-Making"><path id="Shape" d="m30 28c-7.7319865 0-14 6.2680135-14 14s6.2680135 14 14 14 14-6.2680135 14-14c-.0082673-7.7285595-6.2714405-13.9917327-14-14zm0 26c-6.627417 0-12-5.372583-12-12s5.372583-12 12-12 12 5.372583 12 12c-.0071648 6.624447-5.375553 11.9928352-12 12z" fill="#21318d" fill-opacity="1" data-original-color="#000000ff" stroke="none" stroke-opacity="1"/><path id="Path" d="m35.231 35.359-9.3 11.16-1.226-1.226c-.3923789-.3789722-1.0160848-.3735524-1.4018186.0121814s-.3911536 1.0094397-.0121814 1.4018186l2 2c.1875407.1887007.4429588.2942543.709.293h.045c.2807142-.0130841.5431913-.1428725.724-.358l10-12c.2290073-.2747372.2940481-.6507788.1706223-.9864735-.1234258-.3356948-.416567-.5800426-.769-.6410001-.3524331-.0609574-.7106151.0707364-.9396223.3454736z" fill="#21318d" fill-opacity="1" data-original-color="#000000ff" stroke="none" stroke-opacity="1"/><path id="Shape" d="m59.706 41.292-3-3c-.3923789-.3789722-1.0160848-.3735524-1.4018186.0121814s-.3911536 1.0094397-.0121814 1.4018186l1.294 1.294h-8.637c-.5169275-9.1379979-7.8110021-16.4320725-16.949-16.949v-20.637l1.293 1.293c.3923789.37897221 1.0160848.37355237 1.4018186-.01218142.3857338-.3857338.3911536-1.00943969.0121814-1.40181858l-3-3c-.0931333-.09331901-.2039681-.16709554-.326-.217-.2446294-.1011169-.5193706-.1011169-.764 0-.1220319.04990446-.2328667.12368099-.326.217l-3 3c-.3789722.39237889-.3735524 1.01608478.0121814 1.40181858.3857338.38573379 1.0094397.39115363 1.4018186.01218142l1.295-1.293v20.637c-9.1379979.5169275-16.4320725 7.8110021-16.949 16.949h-8.637l1.293-1.293c.37897221-.3923789.37355237-1.0160848-.01218142-1.4018186-.3857338-.3857338-1.00943969-.3911536-1.40181858-.0121814l-3 3c-.09331901.0931333-.16709554.2039681-.217.326-.1011169.2446294-.1011169.5193706 0 .764.04990446.1220319.12368099.2328667.217.326l3 3c.25107447.2599566.62287789.3642126.97250732.2726972.34962944-.0915155.6226744-.3645604.71418984-.7141899.09151544-.3496294-.01274058-.7214328-.27269716-.9725073l-1.293-1.295h8.637c.5039805 9.5457443 8.3909608 17.0273054 17.95 17.0273054s17.4460195-7.4815611 17.95-17.0273054h8.637l-1.293 1.293c-.2599566.2510745-.3642126.6228779-.2726972.9725073.0915155.3496295.3645604.6226744.7141899.7141899.3496294.0915154.7214328-.0127406.9725073-.2726972l3-3c.093319-.0931333.1670955-.2039681.217-.326.1011169-.2446294.1011169-.5193706 0-.764-.0509104-.1219291-.1257133-.2324334-.22-.325zm-29.706 16.708c-8.836556 0-16-7.163444-16-16s7.163444-16 16-16 16 7.163444 16 16c-.0104696 8.8322157-7.1677843 15.9895304-16 16z" fill="#21318d" fill-opacity="1" data-original-color="#000000ff" stroke="none" stroke-opacity="1"/></g></g></svg>