<svg id="Layer_1" height="512" viewBox="0 0 503.1 496.9" width="512" xmlns="http://www.w3.org/2000/svg"><g id="Layer_20"><g><path d="m503.1 209.1h-503.1v-43.1l251.5-102.8 251.6 102.8z" fill="#0a9bd8"/><path d="m503.1 166v43.1h-244.9c56.2-19.4 100.6-52.4 123.8-92.6z" fill="#158db7"/><path d="m484.7 460.4v-39.2h-466.4v39.2" fill="#01c6e1"/><path d="m484.7 421.2v34.5h-125.1c13.8-10.6 26.8-22.1 39-34.5z" fill="#04aeb2"/><path d="m0 455.7h503.1v41.2h-503.1z" fill="#0a9bd8"/><path d="m503.1 455.7v41.2h-209.4c21.1-10.4 47.3-27.4 65.9-41.2z" fill="#158db7"/><path d="m398.4 209.1h81.9v28.4h-81.9z" fill="#01c6e1"/><path d="m416.7 237.6h45.1v183.6h-45.1z" fill="#0a9bd8"/><path d="m272.6 209.1h81.9v28.4h-81.9z" fill="#01c6e1"/><path d="m291 237.6h45.1v183.6h-45.1z" fill="#0a9bd8"/><path d="m146.3 209.1h81.9v28.4h-81.9z" fill="#01c6e1"/><path d="m164.6 237.6h45.1v183.6h-45.1z" fill="#0a9bd8"/><path d="m19.9 209.1h81.9v28.4h-81.9z" fill="#01c6e1"/><path d="m38.3 237.6h45.1v183.6h-45.1z" fill="#0a9bd8"/><path d="m445.3 393.3h-12v-128h12zm-125.7-128h-12v128h12zm-126.4 0h-12v128h12zm-126.4 0h-12v128h12z" fill="#158db7"/><circle cx="247.1" cy="80.2" fill="#ffbb26" r="80.2"/><path d="m327.3 80.2c0 44.3-35.8 80.2-80.1 80.3-32.6 0-61.9-19.6-74.3-49.8 8.4 2.7 17.2 4.1 26 4.1 47.2-.1 85.5-38.4 85.5-85.6 0-7.2-.9-14.3-2.6-21.3 27.8 13.3 45.5 41.4 45.5 72.3z" fill="#f2b10c"/><path d="m202.3 59.9-11.5-3.4c3.9-13.1 12.5-24.1 24.3-31l6.1 10.3c-9.2 5.3-15.9 13.9-18.9 24.1z" fill="#e6e7e8"/><path d="m289.9 125.1-7.7-9.2c7.3-6.2 12.3-14.8 14.1-24.2l11.8 2.2c-2.3 12.2-8.7 23.2-18.2 31.2z" fill="#e6e7e8"/><path d="m274.3 95c.1-12.9-13.6-16.3-24.5-18.9s-17.4-4.6-18.2-9.5c-.5-2.4.2-4.9 1.8-6.8 2.4-3 6.9-4.5 12.7-4.5s10.4 1.3 13.7 4.8 3.1 5.2 3.1 9.1l10.3.3c.2-6.7-1.8-12.2-6-16.6-4.1-3.9-9.3-6.5-14.9-7.2v-9h-10.2v8.5c-7.1.8-12.8 3.5-16.6 7.9-3.6 4.2-5.1 9.8-4 15.2 2.1 12 14.7 15 25.9 17.8s16.7 4.4 16.6 8.9-1.9 11.2-17 11.5c-5.4.2-9.7-1.3-12.5-4.2-2.4-2.3-3.8-5.5-3.9-8.9h-10.3c0 6.2 2.5 12.1 6.9 16.4 4 3.8 9.2 6.2 14.7 6.8v6.8h10.3v-6.8c19-2.2 22-14.2 22.1-21.6z" fill="#5e5e5e"/></g></g></svg>