<svg width="476" height="476" viewBox="0 0 476 476" xmlns="http://www.w3.org/2000/svg" xmlns:xlink="http://www.w3.org/1999/xlink">
    <defs>
        <path d="M0 0v76.567c0 6.256 5.095 11.33 11.379 11.33h126.387c6.283 0 11.379-5.074 11.379-11.33V0H0z" id="c8hvf8iqhb"/>
        <path d="M0 0v76.567c0 6.256 5.095 11.33 11.379 11.33h126.387c6.283 0 11.379-5.074 11.379-11.33V0H0z" id="sufz8oin1d"/>
        <path d="M0 0v76.567c0 6.256 5.095 11.33 11.379 11.33h126.387c6.283 0 11.379-5.074 11.379-11.33V0H0z" id="jngovphvnf"/>
        <path d="M0 0v76.567c0 6.256 5.095 11.33 11.379 11.33h126.387c6.283 0 11.379-5.074 11.379-11.33V0H0z" id="vhtdtb67jh"/>
        <path d="M0 0v76.567c0 6.256 5.095 11.33 11.379 11.33h126.387c6.283 0 11.379-5.074 11.379-11.33V0H0z" id="yxhoo47s5j"/>
        <path d="M0 0v76.567c0 6.256 5.095 11.33 11.379 11.33h126.387c6.283 0 11.379-5.074 11.379-11.33V0H0z" id="tulmcrmy1l"/>
        <path d="M0 0v76.567c0 6.256 5.095 11.33 11.379 11.33h126.387c6.283 0 11.379-5.074 11.379-11.33V0" id="6wemzzugmn"/>
        <path d="M0 0v76.567c0 6.256 5.095 11.33 11.379 11.33h126.387c6.283 0 11.379-5.074 11.379-11.33V0" id="b9dm7qb6jp"/>
        <path d="M0 0v76.567c0 6.256 5.095 11.33 11.379 11.33h126.387c6.283 0 11.379-5.074 11.379-11.33V0" id="vceof1eqyr"/>
        <path d="M0 0v76.567c0 6.256 5.095 11.33 11.379 11.33h126.387c6.283 0 11.379-5.074 11.379-11.33V0" id="elj5rx7m7t"/>
        <path id="9xkac5lfuv" d="M0 302.439h319.056V0H0z"/>
        <path id="nf3vzcy3xx" d="M0 0h51.095v35.871H0z"/>
        <path id="ad0imfoktz" d="M0 0h65.288v89.679H0z"/>
        <filter x="-23%" y="-23%" width="146%" height="146%" filterUnits="objectBoundingBox" id="p8i710i2va">
            <feGaussianBlur stdDeviation="25" in="SourceGraphic"/>
        </filter>
    </defs>
    <g fill="none" fill-rule="evenodd">
        <path d="M234 337c-90.023 0-163-72.977-163-163S143.977 11 234 11s163 72.977 163 163-72.977 163-163 163z" fill="#F4F4F5" filter="url(#p8i710i2va)" transform="translate(4 64)"/>
        <path d="m261.631 174.623.216-.44-2.654-1.282-.215.44 2.653 1.282zm5.308 2.565.215-.44-2.654-1.282-.215.44 2.654 1.282zm5.307 2.565.215-.44-2.653-1.282-.216.44 2.654 1.282zm5.307 2.565.216-.44-2.654-1.282-.215.44 2.653 1.282zm5.31 2.565.212-.441-2.653-1.281-.215.44 2.655 1.282zm5.433 2.333.178-.456a79.586 79.586 0 0 1-2.722-1.108l-.195.449c.891.382 1.813.757 2.739 1.115zm5.585 1.942.147-.467a94.884 94.884 0 0 1-2.793-.92l-.163.461c.91.316 1.855.627 2.809.926zm5.688 1.607.122-.474c-.961-.245-1.918-.501-2.843-.762l-.134.47c.929.262 1.89.52 2.855.766zm5.548 1.795.218-.437a18.4 18.4 0 0 0-2.776-1.097l-.144.467c.928.283 1.837.642 2.702 1.067zm4.654 3.41.36-.333a15.374 15.374 0 0 0-2.24-1.974l-.29.394a15.419 15.419 0 0 1 2.17 1.912zm3.006 4.888.463-.165a14.584 14.584 0 0 0-1.298-2.684l-.42.255c.51.825.932 1.698 1.255 2.594zm-4.203.494a17.927 17.927 0 0 1 2.891-.301l-.012-.49c-1.013.025-2.012.13-2.97.311l.091.48zm8.657.406.13-.472a21.25 21.25 0 0 0-2.927-.574l-.061.485c.959.118 1.92.307 2.858.56zm-13.954 1.785a10.83 10.83 0 0 1 2.513-1.391l-.184-.454a11.31 11.31 0 0 0-2.627 1.456l.298.389zm19.29.504.258-.416a20.292 20.292 0 0 0-2.648-1.369l-.194.45c.9.385 1.769.834 2.583 1.335zm-8.607 2.53c.056-.463.084-.94.084-1.415 0-.517-.033-1.046-.1-1.57l-.488.06a12 12 0 0 1 .096 1.51c0 .456-.027.912-.08 1.356l.488.059zm12.99 1.242.378-.314a18.657 18.657 0 0 0-2.095-2.117l-.322.37c.732.63 1.419 1.324 2.04 2.06zm-26.733.512.492-.01-.002-.13a5.052 5.052 0 0 1 .68-2.553l-.429-.242a5.538 5.538 0 0 0-.742 2.794l.001.141zm11.363 3.677a8.568 8.568 0 0 0 1.619-2.536l-.453-.19a8.093 8.093 0 0 1-1.526 2.393l.36.333zm18.586.68.418-.257c-.517-.83-1.027-1.664-1.529-2.503l-.422.25c.503.842 1.014 1.679 1.533 2.51zm-26.992.706.245-.423a5.325 5.325 0 0 1-1.96-1.969l-.428.243a5.81 5.81 0 0 0 2.143 2.15zm3.265.836c.907 0 1.823-.173 2.65-.502l-.183-.454a6.747 6.747 0 0 1-2.468.467c-.122-.012-.212-.002-.318-.007l-.024.488c.115.005.25-.002.343.008zm26.942 3.39.408-.275a143.543 143.543 0 0 1-1.628-2.44l-.412.265c.535.822 1.08 1.638 1.632 2.45zm3.423 4.792.394-.293c-.577-.77-1.16-1.568-1.731-2.368l-.4.283a128.86 128.86 0 0 0 1.737 2.378zm3.64 4.632.38-.31a121.383 121.383 0 0 1-1.84-2.286l-.388.301c.61.776 1.23 1.548 1.847 2.295zm3.865 4.448.364-.33c-.652-.711-1.31-1.448-1.953-2.19l-.372.32c.646.745 1.306 1.485 1.961 2.2zm4.097 4.24.346-.349a105.79 105.79 0 0 1-2.068-2.082l-.355.339c.682.706 1.381 1.41 2.077 2.092zm4.264 4.06.34-.353-2.135-2.024-.34.353 2.135 2.025z" fill="#9192FF"/>
        <path d="M270.699 83.711c0 .102 0 .197-.012.299h-64.672c.168-5.3 4.809-9.55 10.5-9.55 1.826 0 3.537.436 5.032 1.2-.079-4.125 1.915-8.076 5.589-10.194 5.511-3.176 12.722-1.021 16.096 4.816a12.788 12.788 0 0 1 1.699 5.533c2.69-1.224 6.022-1.952 9.636-1.952 8.91 0 16.132 4.411 16.132 9.848" fill="#EBEBFF"/>
        <path d="M431.237 233.582H378.63v-.06c0-4.348 5.845-7.884 13.03-7.884 2.839 0 5.541.547 7.816 1.582l.243.11.018-.264c.104-1.563.565-3.06 1.367-4.454 1.37-2.368 3.538-4.05 6.107-4.735 2.352-.627 4.776-.323 6.825.857 2.832 1.634 4.551 4.771 4.487 8.188l-.006.307.274-.14a8.91 8.91 0 0 1 4.037-.963c4.516 0 8.172 3.26 8.409 7.456zm-52.945.367h53.328l-.006-.19c-.143-4.485-4.002-8-8.786-8-1.365 0-2.719.301-3.935.872-.036-3.434-1.807-6.562-4.672-8.214-2.134-1.23-4.658-1.547-7.105-.894-2.665.71-4.913 2.453-6.331 4.907a10.6 10.6 0 0 0-1.396 4.35c-2.27-.988-4.937-1.51-7.73-1.51-7.387 0-13.398 3.702-13.398 8.251 0 .09.001.176.011.266l.02.162z" fill="#9192FF"/>
        <g>
            <g transform="matrix(-1 0 0 1 274.923 152.841)">
                <mask id="1w9nrsb0uc" fill="#fff">
                    <use xlink:href="#c8hvf8iqhb"/>
                </mask>
                <path d="M0 76.567c0 6.256 5.095 11.33 11.379 11.33h126.387c6.283 0 11.379-5.074 11.379-11.33V0H0v76.567z" fill="#FFF" mask="url(#1w9nrsb0uc)"/>
            </g>
            <g transform="matrix(-1 0 0 1 274.923 152.841)">
                <mask id="j7d5g13zce" fill="#fff">
                    <use xlink:href="#sufz8oin1d"/>
                </mask>
                <path d="M-7.805 19.524C-6.061 13.958-.546 9.686 5.48 9.234c6.027-.452 12.177 2.944 14.815 8.18 3.206-.029 6.366 1.742 7.924 4.44 1.558 2.7 1.448 6.214-.276 8.812 3.819.66 7.247 3.161 8.936 6.522 1.69 3.362 1.598 7.497-.24 10.78 4.203-2.127 9.578-1.934 13.61.49 4.033 2.425 6.573 6.99 6.432 11.558 2.618-4.088 7.638-6.636 12.627-6.41 4.99.227 9.747 3.218 11.967 7.526 2.343-6.979 8.59-12.613 15.98-14.413 7.39-1.8 15.683.292 21.214 5.353 8.318 1.295 14.381 10.29 12.214 18.118 4.494 3.702 6.79 9.722 5.851 15.335-.94 5.614-5.082 10.627-10.554 12.77l-143.13-.092-12.201-54.372 21.546-24.307z" fill="#D1D1FF" mask="url(#j7d5g13zce)"/>
            </g>
            <g transform="matrix(-1 0 0 1 274.923 152.841)">
                <mask id="8rcp0a6jyg" fill="#fff">
                    <use xlink:href="#jngovphvnf"/>
                </mask>
                <path d="M-10.076 37.581c1.69-5.567 7.021-9.843 12.844-10.3 5.823-.457 11.762 2.934 14.306 8.17 3.098-.033 6.15 1.735 7.653 4.433 1.503 2.697 1.394 6.211-.274 8.811 3.689.656 7 3.155 8.629 6.515 1.63 3.36 1.537 7.495-.24 10.78 4.062-2.13 9.254-1.942 13.148.48 3.895 2.42 6.345 6.983 6.205 11.552 2.533-4.09 7.384-6.642 12.205-6.42 4.82.222 9.415 3.21 11.556 7.517 2.269-6.981 8.308-12.62 15.45-14.426 7.142-1.806 15.152.28 20.491 5.336 8.036 1.289 13.887 10.278 11.786 18.108 4.34 3.699 6.553 9.716 5.641 15.33-.912 5.615-4.918 10.63-10.207 12.78l-138.283.02-11.746-54.362 20.836-24.324z" fill="#FFF" mask="url(#8rcp0a6jyg)"/>
            </g>
            <g transform="matrix(-1 0 0 1 274.923 152.841)">
                <mask id="x8558w4rfi" fill="#fff">
                    <use xlink:href="#vhtdtb67jh"/>
                </mask>
                <path d="M99.862 2.451C58.438 41.24 29.062 51.698-7.945 55.438l-2.459 39.17 38.846 13.219c33.93-.98 66.508-49.886 86.632-91.842L99.862 2.45z" fill="#FFF2E0" mask="url(#x8558w4rfi)"/>
            </g>
            <g transform="matrix(-1 0 0 1 274.923 152.841)">
                <mask id="skchc5t7wk" fill="#fff">
                    <use xlink:href="#yxhoo47s5j"/>
                </mask>
                <path d="M105.697 2.955c-6.735 7.934-16.892 15.523-28.872 25.773l16.346-6.633c-2.004 3.307-4.923 7.935-6.56 9.92 3.768-1.732 9.83-5.54 11.838-7.56 0 2.818-3.41 7.532-4.897 10.107 8.719-7.43 16.65-16.5 19.213-24.468l-7.068-7.139z" fill="#FFA121" mask="url(#skchc5t7wk)"/>
            </g>
            <g transform="matrix(-1 0 0 1 274.923 152.841)">
                <mask id="mb31lce9am" fill="#fff">
                    <use xlink:href="#tulmcrmy1l"/>
                </mask>
                <path d="M107.606 3.356c-3.984 5.259-9.947 10.327-16.993 17.154l9.538-4.506c-1.195 2.184-2.934 5.24-3.903 6.556 2.201-1.171 5.753-3.725 6.937-5.067-.03 1.844-2.054 4.962-2.942 6.662 5.128-4.95 9.817-10.964 11.384-16.202l-4.021-4.597z" fill="#FFF" mask="url(#mb31lce9am)"/>
            </g>
            <g transform="matrix(-1 0 0 1 274.923 152.841)">
                <mask id="6hqajutdeo" fill="#fff">
                    <use xlink:href="#6wemzzugmn"/>
                </mask>
                <path d="M45.75 30.304c.053 1.226-.001 3.296-1.231 4.005-2.054 1.185-3.67-1.69-4.424-3.135-.9-1.726-.67-3.867 1.365-4.636 2.687-1.016 4.191 1.478 4.29 3.766" fill="#D1D1FF" mask="url(#6hqajutdeo)"/>
            </g>
            <g transform="matrix(-1 0 0 1 274.923 152.841)">
                <mask id="hb6b47kqoq" fill="#fff">
                    <use xlink:href="#b9dm7qb6jp"/>
                </mask>
                <path d="M143.136 67.536c.053 1.226-.002 3.296-1.232 4.005-2.054 1.184-3.67-1.69-4.423-3.136-.9-1.725-.67-3.866 1.364-4.635 2.687-1.016 4.192 1.477 4.29 3.766" fill="#D1D1FF" mask="url(#hb6b47kqoq)"/>
            </g>
            <g transform="matrix(-1 0 0 1 274.923 152.841)">
                <mask id="ai024f1aws" fill="#fff">
                    <use xlink:href="#vceof1eqyr"/>
                </mask>
                <path d="M36.556 16.432c0 .947-.77 1.714-1.721 1.714-.95 0-1.721-.767-1.721-1.714 0-.946.77-1.713 1.72-1.713.951 0 1.722.767 1.722 1.713" fill="#D1D1FF" mask="url(#ai024f1aws)"/>
            </g>
            <g transform="matrix(-1 0 0 1 274.923 152.841)">
                <mask id="9fbn31yfsu" fill="#fff">
                    <use xlink:href="#elj5rx7m7t"/>
                </mask>
                <path d="M124.983 47.36a2.615 2.615 0 0 1-2.62 2.609 2.615 2.615 0 0 1-2.621-2.61 2.615 2.615 0 0 1 2.62-2.609 2.615 2.615 0 0 1 2.62 2.61" fill="#D1D1FF" mask="url(#9fbn31yfsu)"/>
            </g>
        </g>
        <g transform="matrix(-1 0 0 1 430.676 71.561)">
            <path d="M157.621 88.932v76.62c0 6.135 4.987 11.127 11.118 11.127H294.95c6.13 0 11.117-4.992 11.117-11.128v-76.62H157.621zm137.33 88.239H168.739c-6.401 0-11.609-5.213-11.609-11.62v-77.11h149.43v77.11c0 6.407-5.208 11.62-11.61 11.62z" fill="#9192FF"/>
            <path d="M294.95 58.907H168.739c-6.275 0-11.363 5.09-11.363 11.373v18.406h148.939V70.28c0-6.283-5.088-11.373-11.363-11.373" fill="#FFF"/>
            <path d="M157.621 88.44h148.447V70.28c0-6.135-4.987-11.128-11.117-11.128H168.739c-6.13 0-11.118 4.993-11.118 11.128v18.16zm148.938.492H157.13V70.28c0-6.407 5.208-11.62 11.609-11.62H294.95c6.4 0 11.608 5.213 11.608 11.62v18.652z" fill="#9192FF"/>
            <path d="M178.609 73.796a6.233 6.233 0 0 1-6.23 6.236 6.233 6.233 0 0 1-6.23-6.236 6.233 6.233 0 0 1 6.23-6.235c3.44 0 6.23 2.791 6.23 6.235" fill="#D1D1FF"/>
            <path d="M196.958 73.796a6.233 6.233 0 0 1-6.23 6.236 6.233 6.233 0 0 1-6.23-6.236 6.233 6.233 0 0 1 6.23-6.235c3.441 0 6.23 2.791 6.23 6.235" fill="#FFF"/>
            <path d="M190.728 67.806c-3.3 0-5.984 2.687-5.984 5.99 0 3.303 2.685 5.99 5.984 5.99 3.3 0 5.984-2.687 5.984-5.99 0-3.303-2.684-5.99-5.984-5.99m0 12.472c-3.57 0-6.475-2.908-6.475-6.482 0-3.573 2.905-6.481 6.475-6.481 3.571 0 6.476 2.908 6.476 6.481 0 3.574-2.905 6.482-6.476 6.482" fill="#9192FF"/>
            <path d="M238.151 79.748h-24.804a5.95 5.95 0 0 1-5.946-5.952 5.95 5.95 0 0 1 5.946-5.952h24.804a5.95 5.95 0 0 1 5.946 5.952 5.95 5.95 0 0 1-5.946 5.952" fill="#FFF"/>
            <path d="M213.347 68.09a5.71 5.71 0 0 0-5.7 5.706 5.71 5.71 0 0 0 5.7 5.707h24.804a5.71 5.71 0 0 0 5.701-5.707 5.71 5.71 0 0 0-5.7-5.706h-24.805zm24.804 11.904h-24.804c-3.415 0-6.192-2.78-6.192-6.198 0-3.417 2.777-6.197 6.192-6.197h24.804c3.415 0 6.192 2.78 6.192 6.197 0 3.418-2.777 6.198-6.192 6.198z" fill="#9192FF"/>
            <path d="M288.773 45.34c-9.946 8.716-27.101 2.709-32.432 9.668l15.233 12.074 17.2-21.741z" fill="#3335CF"/>
            <path d="M256.341 55.008a5.897 5.897 0 0 0 1.076 5.949l10.794 12.375 3.363-6.25-15.233-12.074z" fill="#D1D1FF"/>
            <path d="M311.317 63.21c-6.195 11.688 3.579 27.025-1.967 33.815L294.117 84.95l17.2-21.741z" fill="#3335CF"/>
            <path d="M309.35 97.025a5.883 5.883 0 0 1-6.032.315l-14.508-7.68 5.308-4.71 15.232 12.075z" fill="#D1D1FF"/>
            <path fill="#1B1B43" d="m319.056 30.36-13.562 4.983 11.824 9.373z"/>
            <path d="M317.318 44.716c-1.894 21.48-17.75 41.523-37.008 52.656l-17.55-13.896c7.364-23.19 21.079-39.785 42.734-48.132l11.824 9.372z" fill="#C5C5FF"/>
            <path fill="#3335CF" d="m262.76 83.476-7.612 5.276 21.774 17.258 3.388-8.638z"/>
            <path d="M306.788 59a8.14 8.14 0 0 1-11.441 1.33 8.158 8.158 0 0 1-1.33-11.453 8.14 8.14 0 0 1 11.442-1.33A8.158 8.158 0 0 1 306.79 59" fill="#FFF"/>
            <path d="m298.661 48.912-.16-.464c.484-.167.99-.27 1.502-.306l.035.49c-.47.033-.933.127-1.377.28zm4.107.262a5.281 5.281 0 0 0-1.329-.454l.095-.482c.504.1.993.267 1.452.495l-.218.44zm-6.405 1.309-.373-.32a5.805 5.805 0 0 1 1.14-1.026l.277.406c-.387.264-.738.58-1.044.94zm8.486.54a5.306 5.306 0 0 0-.918-1.063l.326-.367c.385.342.722.732 1.003 1.16l-.41.27zM295.171 53l-.484-.086c.09-.507.248-.998.468-1.462l.444.21c-.201.425-.346.875-.428 1.338zm10.54.673a5.375 5.375 0 0 0-.255-1.382l.467-.152c.158.487.252.995.278 1.509l-.49.025zm-10.757 2.273a5.852 5.852 0 0 1-.334-1.498l.489-.044c.042.47.144.932.306 1.372l-.461.17zm10.6.676-.436-.227c.217-.417.378-.861.478-1.321l.48.105c-.11.502-.285.988-.522 1.443zm-8.84 1.805a5.803 5.803 0 0 1-1.045-1.123l.4-.285c.27.382.593.728.958 1.028l-.312.38zm7.138.188-.291-.395a5.339 5.339 0 0 0 1.008-.978l.385.305c-.32.404-.69.764-1.102 1.068zm-4.366 1.063a5.747 5.747 0 0 1-1.47-.44l.202-.448c.427.193.88.329 1.344.403l-.076.485zm1.533.039-.052-.489c.467-.05.926-.16 1.364-.331l.178.458c-.478.186-.98.308-1.49.362z" fill="#9192FF"/>
            <path d="m260.268 105.07-.388-.308a1.327 1.327 0 0 1-.216-1.858l15.275-19.307a1.324 1.324 0 0 1 1.855-.216l.389.308c.57.451.666 1.287.215 1.857l-15.274 19.308a1.324 1.324 0 0 1-1.856.216" fill="#1B1B43"/>
            <mask id="26xedn2i5w" fill="#fff">
                <use xlink:href="#9xkac5lfuv"/>
            </mask>
            <path d="M229.783 220.21h2.947v-.491h-2.947v.491zm5.893 0h2.946v-.491h-2.946v.491zm5.893 0h2.946v-.491h-2.946v.491zm5.892 0h2.946v-.491h-2.946v.491zm5.893 0h2.946v-.491h-2.946v.491zm5.892 0h2.947v-.491h-2.947v.491zm5.893 0h2.946v-.491h-2.946v.491zm5.892 0h2.947v-.491h-2.947v.491zm5.893 0h2.946v-.491h-2.946v.491zm5.893 0h2.946v-.491h-2.946v.491zm8.567.976a8.858 8.858 0 0 0-2.717-.875l.073-.486a9.344 9.344 0 0 1 2.867.923l-.223.438zm-67.185.118-.236-.43a9.342 9.342 0 0 1 2.84-1.005l.087.484c-.943.17-1.849.49-2.69.951zm71.14 3.902a8.971 8.971 0 0 0-1.655-2.33l.35-.344a9.435 9.435 0 0 1 1.744 2.457l-.44.217zm-74.98.229-.446-.205c.42-.92.984-1.763 1.675-2.506l.36.335a8.92 8.92 0 0 0-1.588 2.376zm76.383 5.416h-.491v-1.704c0-.404-.028-.81-.08-1.21l.485-.064c.057.42.086.848.086 1.274v1.704zm-77.187.26h-.49v-1.964c0-.335.017-.674.053-1.008l.488.051c-.034.317-.05.64-.05.957v1.964zm76.696 5.638h.49v-2.95h-.49v2.95zm-77.187.26h.491v-2.949h-.49v2.95zm77.187 5.638h.49v-2.95h-.49v2.95zm-77.187.26h.491v-2.949h-.49v2.95zm77.187 5.638h.49v-2.949h-.49v2.95zm-77.187.26h.491v-2.948h-.49v2.949zm77.187 5.638h.49v-2.949h-.49v2.95zm-77.187.261h.491v-2.95h-.49v2.95zm77.187 5.638h.49v-2.95h-.49v2.95zm-77.187.26h.491v-2.949h-.49v2.95zm77.39 5.674-.476-.12a8.99 8.99 0 0 0 .273-2.202v-.663h.49v.663c0 .785-.096 1.567-.287 2.322zm-77.032.259a9.443 9.443 0 0 1-.358-2.581v-.403h.491v.403c0 .831.115 1.655.339 2.446l-.472.135zm73.822 4.751-.308-.382a8.954 8.954 0 0 0 1.905-2.128l.413.266a9.457 9.457 0 0 1-2.01 2.244zm-70.472.165a9.468 9.468 0 0 1-2.072-2.187l.405-.277a8.955 8.955 0 0 0 1.965 2.074l-.298.39zm64.906 1.924-.018-.492a8.895 8.895 0 0 0 2.798-.56l.173.46a9.396 9.396 0 0 1-2.953.592zm-59.282.006a9.38 9.38 0 0 1-2.969-.507l.16-.465c.902.31 1.85.472 2.813.48l-.004.492zm2.948 0h2.947v-.491h-2.947v.491zm5.893 0h2.946v-.491h-2.946v.491zm5.892 0h2.947v-.491h-2.947v.491zm5.893 0h2.946v-.491h-2.946v.491zm5.893 0h2.946v-.491h-2.946v.491zm5.892 0h2.946v-.491h-2.946v.491zm5.893 0h2.946v-.491H266.7v.491zm5.892 0h2.946v-.491h-2.946v.491zm5.893 0h2.946v-.491h-2.946v.491zm5.892 0h2.947v-.491h-2.947v.491z" fill="#9192FF" mask="url(#26xedn2i5w)"/>
            <path d="M281.95 264.861h-62.687a7.254 7.254 0 0 1-7.25-7.257v-40.12a7.254 7.254 0 0 1 7.25-7.257h62.687c4.004 0 7.25 3.249 7.25 7.257v40.12a7.254 7.254 0 0 1-7.25 7.257" fill="#9192FF" mask="url(#26xedn2i5w)"/>
            <path fill="#FFF" mask="url(#26xedn2i5w)" d="M225.434 259.13h8.357v-16.99h-8.357zM239.43 259.13h8.357v-16.444h-8.357zM253.426 259.13h8.357v-25.034h-8.357zM267.422 259.13h8.357v-32.378h-8.357zM228.184 219.884h44.844v-1.963h-44.844z"/>
            <path d="M91.643 156.892a23.299 23.299 0 0 0-8.557-12.3l-1.658-1.222 1.407 29.144 10.882-8.426-2.074-7.196z" fill="#FFA121" mask="url(#26xedn2i5w)"/>
            <path d="m126.612 192.12-2.418-4.74a4.806 4.806 0 0 0-2.997-2.447l-7.113-1.972-18.298-11.694-2.07-7.179-10.88 8.426.098 2.047a10.77 10.77 0 0 0 6.486 9.37l17.767 7.672 8.445.188c2.722.939 3.66 3.287 5.35 2.442.629-.315-1.83-4.368-1.83-4.368l4.081 4.509 3.379-2.255z" fill="#FFBC96" mask="url(#26xedn2i5w)"/>
            <path fill="#D28572" mask="url(#26xedn2i5w)" d="m93.607 174.267-.429-.364 2.393-2.819.43.365z"/>
            <path d="m94.787 203.925 13.312-1.177c8.666-.766 16.205 6.24 16.627 15.45l3.008 65.63-18.364.572-14.583-80.475z" fill="#26289C" mask="url(#26xedn2i5w)"/>
            <path fill="#1B1B43" mask="url(#26xedn2i5w)" d="m110.847 283.747.563 18.128h27.213l-13.419-11.177-.844-8.735z"/>
            <path fill="#FFF" mask="url(#26xedn2i5w)" d="m119.824 295.56-.688-.894 5.724-4.415.688.893z"/>
            <path fill="#D1D1FF" mask="url(#26xedn2i5w)" d="m104.653 283.747.563 18.128h27.214l-13.42-11.177-.844-8.735z"/>
            <path fill="#FFF" mask="url(#26xedn2i5w)" d="m113.63 295.56-.687-.894 5.724-4.415.687.893z"/>
            <path d="M124.923 285.532H102.4L86.35 236.095l-2.246-6.92-32.093-.142c-1.982-.028-3.88-.946-5.49-2.305-3.412-2.88-4.983-7.405-4.364-11.83l2.816-20.102 47.677 6.205a21.42 21.42 0 0 1 18.203 16.885l14.07 67.646z" fill="#3335CF" mask="url(#26xedn2i5w)"/>
            <path fill="#1B1B43" mask="url(#26xedn2i5w)" d="m90.718 229.174-4.369 6.921-2.246-6.92z"/>
            <path d="M84.823 191.156c-.23.93-.473 1.86-.72 2.795l-1.69 6.904-22.24-.925-16.012-.665c-4.245-.174-7.32-4.12-6.452-8.284l7.465-35.962a13.644 13.644 0 0 1 12.072-11.457l18.27-1.883 5.912 1.691c5.771 3.1 5.777 8.718 6.053 12.399 1.21 16.107-.282 25.862-2.658 35.387" fill="#FFA121" mask="url(#26xedn2i5w)"/>
            <path d="M69.745 190.006c-.23.93 14.605 3.01 14.358 3.945l-1.69 6.904-22.24-.925c-7.77-5.866-10.68-18.631-13.512-34.626l23.084 24.702zM65.325 152.082c.975 1.045 2.084 1.957 3.324 2.637 1.235.68 2.579 1.178 3.971 1.342 1.377.18 2.831.063 4.04-.594 1.237-.616 2.024-1.915 2.172-3.322l.22.015a4.55 4.55 0 0 1-.56 2.145 4.27 4.27 0 0 1-1.59 1.59c-1.323.767-2.893.905-4.353.72a10.822 10.822 0 0 1-4.138-1.484 11.686 11.686 0 0 1-3.255-2.908l.17-.141zM87.973 174.053l-.421-.03c.404-5.67-.006-12.639-1.218-20.712l.417-.063c1.218 8.104 1.629 15.104 1.222 20.805M104.841 198.178h20.926v-4.133h-20.926z" fill="#1B1B43" mask="url(#26xedn2i5w)"/>
            <path fill="#9192FF" mask="url(#26xedn2i5w)" d="M161.989 198.178h-42.04l19.33-37.008h42.041z"/>
            <path d="M69.956 112.092c-4.926-4.861-14.216-2.818-14.075 5.354-10.135 2.677-10.698 13.807-6.616 19.513l3.519.282.774-4.156 2.04 4.227 9.854.634 4.504-25.854z" fill="#1B1B43" mask="url(#26xedn2i5w)"/>
            <path d="M78.19 130.267v15.526c0 .141-.005.277-.016.412-.242 3.195-3.333 5.455-6.492 4.638a10.48 10.48 0 0 1-7.854-10.235l.079-10.341H78.19z" fill="#FFBC96" mask="url(#26xedn2i5w)"/>
            <path d="M78.19 136.98v8.813c0 .141-.005.277-.016.412-4.15-.682-8.947-5.49-10.118-10.725l10.135 1.5z" fill="#1B1B43" mask="url(#26xedn2i5w)"/>
            <path d="M86.586 131.417a28.002 28.002 0 0 1-.884 3.697c-1.24 3.939-3.463 7.208-7.444 6.639-9.357-1.342-14.565-10.99-14.565-10.99l6.401-7.327 4.296-5.782 12.877 5.568s.068 3.94-.681 8.195" fill="#FFBC96" mask="url(#26xedn2i5w)"/>
            <path d="M66.46 128.294c4.108-.13 7.284-2.225 8.634-8.171 0 0 9.572 8.265 14.264 3.85 3.929-3.696-2.737-12.201-13.77-13.215-4.019-.369-8.025.887-11.175 3.413-5.347 4.289-5.858 14.264-.861 17.716l2.909-3.593z" fill="#1B1B43" mask="url(#26xedn2i5w)"/>
            <path d="M61.652 117.868c-.269-.971-.069-2.047.365-2.973a6.601 6.601 0 0 1 1.927-2.375 6.784 6.784 0 0 1 2.758-1.291c.995-.205 2.053-.173 2.973.229-.95.306-1.773.63-2.546 1.03-.77.395-1.483.853-2.15 1.368a12.46 12.46 0 0 0-1.841 1.742 10.34 10.34 0 0 0-1.486 2.27" fill="#FFA121" mask="url(#26xedn2i5w)"/>
            <path d="M68.202 127.762c.795 1.985.107 4.128-1.535 4.786-1.642.658-3.616-.418-4.41-2.404-.795-1.986-.107-4.129 1.535-4.787 1.641-.658 3.616.419 4.41 2.405" fill="#FFBC96" mask="url(#26xedn2i5w)"/>
            <path d="M65.23 131.08c.07-.686.074-1.335-.125-1.933-.194-.6-.574-1.122-1.012-1.66l.138-.17a2.878 2.878 0 0 1 1.407 1.658 2.894 2.894 0 0 1-.198 2.169l-.21-.063zM80.609 129.002c0 .582-.426 1.053-.951 1.053-.525 0-.951-.471-.951-1.053s.426-1.053.95-1.053c.526 0 .952.471.952 1.053M85.602 129.832c-.063.514-.49.884-.955.827-.464-.057-.789-.52-.726-1.034.063-.514.491-.885.955-.828.464.058.79.52.726 1.035M80.56 126.358c.039.492-.748.539-1.907.573-1.16.035-1.96.394-1.97.082-.008-.31.849-1.11 1.992-1.304 1.18-.2 1.84.063 1.885.649M84.263 126.832c-.085.485.494.61 1.35.76.857.15 1.41.587 1.453.279.043-.308-.5-1.188-1.327-1.495-.853-.316-1.374-.121-1.476.456M82.885 130.707c.22.27.465.503.715.741l.38.354c.13.12.273.25.4.45a.743.743 0 0 1 .027.774c-.131.218-.286.345-.455.458-.336.222-.7.313-1.052.382l-.083-.204c.303-.196.605-.371.84-.574.112-.1.222-.222.262-.315.044-.095.03-.126-.021-.236-.125-.205-.444-.479-.653-.764a3.198 3.198 0 0 1-.553-.96l.193-.106zM78.12 134.176c.574.657 1.173 1.265 1.894 1.65.716.398 1.531.51 2.394.417l.058.212a2.954 2.954 0 0 1-1.36.257 3.11 3.11 0 0 1-1.358-.392c-.831-.462-1.444-1.208-1.814-2.025l.185-.119z" fill="#1B1B43" mask="url(#26xedn2i5w)"/>
            <path d="M77.066 131.252a2.324 2.324 0 1 1-2.323-2.325 2.325 2.325 0 0 1 2.323 2.325M86.586 131.417a28.002 28.002 0 0 1-.884 3.697 2.327 2.327 0 0 1 .884-3.697" fill="#FE5B52" mask="url(#26xedn2i5w)"/>
            <path fill="#FFA121" mask="url(#26xedn2i5w)" d="m60.08 158.915-13.42 6.387 4.21 9.986 14.07-6.495z"/>
            <path d="M109.786 193.548c-.372-.187-.605-.312-.605-.312l.135-.265s.248.12.607.313l-.137.264z" fill="#C5C5FF" mask="url(#26xedn2i5w)"/>
            <path d="M115.351 194.937c-.433.857-3.756-.66-5.304-1.42 1.2.665 3.266 1.972 2.348 2.688-.737.57-2.37-.642-7.72-2.863.812.383 5.592 2.66 4.387 3.522-1.312.936-6.942-1.127-6.942-1.127l-4.882 2.627h-5.63l-20.258.13a14.77 14.77 0 0 1-3.756-.474c-2.404-.614-4.667-1.81-6.587-3.415a16.553 16.553 0 0 1-3.125-3.511 18.765 18.765 0 0 1-1.672-3.134l-5.343-12.67 14.07-6.497 7.342 14.918 24.21 5.263 6.757-1.69c1.452-.367 3.507.248 4.785 1.031 3.12 1.91 7.725 5.805 7.32 6.622" fill="#FFBC96" mask="url(#26xedn2i5w)"/>
            <path d="M67.96 195.923c0 .739-.129 1.443-.366 2.097-2.404-.614-4.667-1.81-6.587-3.415a16.555 16.555 0 0 1-3.125-3.511 6.193 6.193 0 0 1 10.078 4.83" fill="#FE5B52" mask="url(#26xedn2i5w)"/>
            <path d="M96.455 188.868a45.977 45.977 0 0 1 5.116-1.404c.868-.179 1.746-.325 2.642-.377a7.993 7.993 0 0 1 1.359.036c.226.045.451.105.676.158.216.076.425.162.638.244 1.647.748 3.082 1.816 4.47 2.915a53.871 53.871 0 0 1 3.97 3.536l.059.057.012.072c.045.267.014.514-.134.763-.09.105-.184.22-.306.27a.877.877 0 0 1-.351.123c-.467.076-.875-.02-1.265-.125-.783-.215-1.481-.573-2.186-.918a33.891 33.891 0 0 1-2.026-1.166c-.67-.398-1.306-.842-1.959-1.264l.298-.476c1.152.684 2.272 1.402 3.343 2.216.532.413 1.058.835 1.51 1.389.11.147.218.295.294.496a.914.914 0 0 1 .067.344.658.658 0 0 1-.144.384c-.178.205-.391.275-.572.32-.187.05-.363.059-.541.077l-.056.006-.06-.026-6.111-2.563.183-.43c.962.445 1.9.923 2.793 1.51.436.311.894.594 1.215 1.132a.66.66 0 0 1 .05.54.726.726 0 0 1-.362.373c-.283.144-.568.174-.841.189-1.096.024-2.125-.232-3.146-.485a35.333 35.333 0 0 1-3.007-.945l.074-.207c.987.33 1.993.623 3.005.864 1.008.227 2.048.45 3.052.4.479-.019 1.05-.23.817-.546-.22-.37-.674-.683-1.09-.96-.865-.553-1.805-1.017-2.748-1.436l.183-.43 6.134 2.509-.115-.02c.15-.017.307-.026.44-.064.14-.029.25-.091.288-.138.086-.034-.03-.337-.221-.564-.39-.473-.905-.892-1.42-1.287-1.044-.786-2.164-1.497-3.294-2.16l.297-.477c.648.415 1.276.863 1.935 1.256.65.412 1.315.791 1.987 1.155.68.337 1.367.689 2.078.886.349.1.72.17 1.018.119l.108-.02c.034-.009.054-.03.083-.042.065-.018.085-.07.129-.102a.57.57 0 0 0 .06-.356l.07.13a58.833 58.833 0 0 0-3.908-3.524c-1.355-1.104-2.769-2.176-4.33-2.908l-.595-.236c-.202-.05-.403-.106-.608-.151a7.611 7.611 0 0 0-1.28-.048c-.866.035-1.736.155-2.597.314-1.724.32-3.432.763-5.111 1.281l-.07-.209z" fill="#D28572" mask="url(#26xedn2i5w)"/>
            <path fill="#1B1B43" mask="url(#26xedn2i5w)" d="m50.955 175.483-.177-.384 13.884-6.412-5.783-13.546.389-.166 5.944 13.924zM52.204 298.306h.737V234.81h-.737z"/>
            <path d="M70.308 237.628H34.837a4.366 4.366 0 0 1-4.363-4.368 4.366 4.366 0 0 1 4.363-4.368h35.471a4.366 4.366 0 0 1 4.364 4.368 4.366 4.366 0 0 1-4.364 4.368M67.493 302.439h-29.84v-.722a6.564 6.564 0 0 1 6.56-6.567h16.719a6.564 6.564 0 0 1 6.561 6.567v.722z" fill="#D1D1FF" mask="url(#26xedn2i5w)"/>
            <path fill="#1B1B43" mask="url(#26xedn2i5w)" d="M157.736 302.202 94.864 202.45l.623-.393 62.872 99.753z"/>
            <path fill="#1B1B43" mask="url(#26xedn2i5w)" d="m95.487 302.202-.623-.393 62.872-99.753.623.393z"/>
            <path fill="#D1D1FF" mask="url(#26xedn2i5w)" d="M71.528 206.493h110.167v-8.315H71.528z"/>
            <path d="M80.763 19.992c-12.424 0-22.532 10.117-22.532 22.553S68.34 65.1 80.763 65.1s22.532-10.118 22.532-22.554c0-12.436-10.108-22.553-22.532-22.553m0 45.598c-12.695 0-23.023-10.338-23.023-23.045 0-12.706 10.328-23.044 23.023-23.044s23.023 10.338 23.023 23.044c0 12.707-10.328 23.045-23.023 23.045" fill="#9192FF" mask="url(#26xedn2i5w)"/>
            <path d="M121.382 33.516c0 13.848-11.215 25.074-25.05 25.074s-25.05-11.226-25.05-25.074S82.497 8.44 96.332 8.44s25.05 11.227 25.05 25.075" fill="#EBEBFF" mask="url(#26xedn2i5w)"/>
            <path fill="#1B1B43" mask="url(#26xedn2i5w)" d="M96.34 33.991 82.454 23.094l.455-.58L96.323 33.04l7.48-6.34.476.563z"/>
            <path d="M31.326 87.59h-12.72A3.708 3.708 0 0 0 14.9 91.3v12.732c0 2.049 1.66 3.71 3.706 3.71h9.078l3.911 5.406v-5.42a3.706 3.706 0 0 0 3.438-3.696V91.299c0-2.049-1.66-3.71-3.707-3.71" fill="#FFF" mask="url(#26xedn2i5w)"/>
            <path d="M18.606 87.835a3.466 3.466 0 0 0-3.46 3.464v12.733a3.466 3.466 0 0 0 3.46 3.464h9.203l3.54 4.894v-4.89l.229-.017a3.472 3.472 0 0 0 3.21-3.451V91.299a3.466 3.466 0 0 0-3.462-3.464h-12.72zm13.235 26.072-4.282-5.92h-8.953a3.958 3.958 0 0 1-3.952-3.955V91.299a3.958 3.958 0 0 1 3.952-3.955h12.72a3.958 3.958 0 0 1 3.952 3.955v12.733a3.967 3.967 0 0 1-3.437 3.918v5.957z" fill="#9192FF" mask="url(#26xedn2i5w)"/>
            <path fill="#9192FF" mask="url(#26xedn2i5w)" d="m24.706 104.218-5.092-7.362 1.211-.84 3.747 5.419 5.644-10.11 1.286.72z"/>
            <path fill="#1B1B43" mask="url(#26xedn2i5w)" d="M9.908 302.439h301.785v-.737H9.908z"/>
        </g>
        <g>
            <path d="M41.848 397.81s-.74 11.995-3.05 12.167C38.49 410 27.08 410 27.08 410l-14.565-.085s.095-3.525 4.352-4.27c4.258-.745 11.384-3.751 13.963-9.403 2.713-5.947 11.017 1.569 11.017 1.569" fill="#0B0754"/>
            <path d="M49.718 258.018s-6.776 3.752-8.673 3.751c-1.897 0-9.343-1.401-11.419-.368-2.075 1.032-5.832 5.187-6.537 6.544-1.268 2.44 5.102 1.363 8.114-.716.437-.301.98-.414 1.504-.302 1.56.331 4.8.904 6.364.34 2.104-.758 13.185-1.6 13.185-1.6l-2.538-7.649z" fill="#EA8888"/>
            <path d="M101.459 204.652s-7.13 50.487-18.938 55.009c-5.826 2.232-31.574 7.29-39.19 7.797 0 0-1.866-1.508-1.412-7.645 0 0 26.977-9.866 30.81-15.232 5.702-7.985-3.541-32.622 3.615-40.122 7.157-7.5 19.211-10.723 25.115.193" fill="#E75755"/>
            <path d="M98.99 310.21c-2.077 3.501-4.48 6.783-6.956 9.89-7.653 9.603-15.984 17.521-17.436 25.005-.288 1.492-.746 3.098-1.345 4.79a62.07 62.07 0 0 1-2.22 5.381c-3.248 7.012-8.105 14.868-12.954 22.01-8.384 12.345-15.244 20.629-15.244 20.629s-2.198 1.704-8.486 1.701c-1.75 0-7.64-.953-7.64-.953.579-1.44 7.531-17.83 15.966-38.66l10.581-26.127c.468-1.158.936-2.311 1.4-3.455 1.074-2.655 2.131-5.268 3.164-7.812l14.228-35.136s31.654-11.918 34.941-4.196c2.71 6.368.503 12.605-7.999 26.932" fill="#3662C1"/>
            <path d="M75.108 363.745s10.246 6.399 9.251 8.477c-.132.276-5.794 10.133-5.794 10.133l-7.303 12.541s-3.072-1.775-1.618-5.81c1.453-4.036 2.33-11.635-1.391-16.577-3.916-5.2 6.855-8.764 6.855-8.764" fill="#0B0754"/>
            <path d="M69.273 376.017s7.04-6.524 8.141-10.56c0 0-25.754-30.788-31.34-37.689-.257-.316-.192-.664.147-1.045 4.217-4.746 51.077-14.392 57.202-23.9 2.11-3.274 3.306-6.385 3.957-9.102 1.388-5.801.29-9.808.29-9.808l-46.799-1.35s-38.964 24.207-43.377 40.713c-4.41 16.506 51.779 52.74 51.779 52.74" fill="#6D89CF"/>
            <path d="M46.58 326.93c4.24-4.796 51.364-14.545 57.523-24.154 2.122-3.31 3.324-6.453 3.98-9.199v-5.972L88.08 284.45s-5.673 17.502-22.472 24.065c-15.735 6.148-18.715 17.056-19.029 18.414" fill="#3662C1"/>
            <path d="M74.019 200.941c9.613 2.49 25.548-6.433 25.548-6.433s-6.188-4.166-8.481-13.317c-.117-.461-.22-.934-.315-1.42l-4.937-1.047-7.34 6.589s.166 2.736 1.085 7.439c.158.82.341 1.701.553 2.639-3.941 2.445-6.113 5.55-6.113 5.55" fill="#FDB3B1"/>
            <path d="M109.72 240.552c-1.363 18.328.43 46.204-1.116 51.031-1.335 4.166-16.543 1.69-22.614.299-2.246-.515-4.968-1.25-7.779-2.12-7.84-2.426-16.382-5.891-17.3-8.463a2.353 2.353 0 0 1-.068-1.374c.306-1.311 1.484-2.73 1.622-5.977.155-3.625.132-7.893.268-12.484.007-.516.014-1.08.07-1.595l.003-.187.007-.294c.132-5.12.4-10.501.71-15.838.197-3.352.425-6.672.689-9.853.683-8.21 1.605-15.511 2.824-20.127 1.993-7.525 6.388-12.432 10.388-16.029l2.893-2.48c3.229.704 7.046.237 10.498-1.398 3.737-1.774 5.027-3.045 5.678-2.566 8.63 6.656 14.837 27.049 13.227 49.455" fill="#ED6966"/>
            <path d="M78.177 290.114c-7.85-2.429-16.402-5.897-17.32-8.471a2.16 2.16 0 0 1-.085-.297c.005-.36.01-.719.017-1.079.306-1.312 1.485-2.732 1.624-5.981.154-3.628.131-7.9.268-12.494.007-.518.014-1.082.07-1.597l.003-.188.007-.294 31.733-40.398s21.33 44.386-16.317 70.799" fill="#E75755"/>
            <path d="M78.75 185.375s.163 2.762 1.06 7.509c7.004-2.344 10.18-8.892 11.24-11.67a27.076 27.076 0 0 1-.307-1.432c-.983-.216-2.838-.624-4.822-1.058l-7.171 6.65z" fill="#EA8888"/>
            <path d="M77.024 190.043s15.664-2.568 13.886-12.128c-1.778-9.56-.954-16.33-11.03-15.093-10.077 1.235-11.336 5.231-11.532 8.564-.197 3.332 4.556 19.079 8.676 18.657" fill="#FDB3B1"/>
            <g transform="translate(4 236.307)">
                <mask id="1pbb5j0mxy" fill="#fff">
                    <use xlink:href="#nf3vzcy3xx"/>
                </mask>
                <path fill="#E75755" mask="url(#1pbb5j0mxy)" d="m51.045 32.699-38.682.818L1.366 0 0 .44 11.625 35.87l39.47-.834z"/>
            </g>
            <path d="M54.149 273.824s-12.657 3.405-17.403 3.048c-4.746-.357-8.693-2.661-9.29-3.864-.598-1.202-1.853-3.335 1.379-2.941 3.23.394 7.642 1.094 7.78.46.136-.632-2.635-.572-2.635-.572s-.837-1.243.217-1.288c1.055-.045 4.131-.897 5.274-.314 1.142.583 2.197 2.736 3.032 2.646.835-.09 10.591-4.485 10.591-4.485l1.055 7.31z" fill="#FDB3B1"/>
            <path d="M98.62 206.305s-1.497 50.887-12.714 56.67c-5.535 2.853-30.526 10.696-38.028 12.035 0 0-2.018-1.291-2.245-7.432 0 0 25.679-12.75 28.889-18.495 4.777-8.55-7.118-31.987-.845-40.215 6.273-8.227 17.879-12.748 24.943-2.563" fill="#ED6966"/>
            <path d="M90.61 181.556s.179-3.254-1.867-5.118c0 0 .713-3.262-.602-3.8-1.315-.537-1.59 2.205-2.192 1.775-.603-.43-3.287-2.473-4.438-5.485-1.15-3.01-11.68.636-12.907 1.179-1.228.542-5.172-1.447-5.94-3.06 0 0 2.192-1.721 3.178-3.012.986-1.29 7.89-10 17.532-7.527 9.643 2.473 10.957 6.99 10.41 10.861-.548 3.872.776 12.888-3.173 14.187" fill="#232065"/>
            <g transform="translate(74.019 320.321)">
                <mask id="9rr7z0g98A" fill="#fff">
                    <use xlink:href="#ad0imfoktz"/>
                </mask>
                <path d="M64.048 88.31C58.01 82.155 47.372 77.92 35.084 77.42V57.072h18.985c.47 0 .89-.409 1.157-1.04.185-.442.297-.992.297-1.588v-.917c0-1.446-.654-2.629-1.454-2.629H35.084V2.433A2.444 2.444 0 0 0 32.644 0a2.443 2.443 0 0 0-2.439 2.433v48.465H11.219c-.8 0-1.453 1.183-1.453 2.629v.917c0 .616.118 1.183.316 1.632.266.607.678.996 1.137.996h18.986v20.349c-12.289.498-22.927 4.735-28.965 10.888-.439.447-.852.903-1.24 1.37h65.288a21.678 21.678 0 0 0-1.24-1.37" fill="#FC9290" mask="url(#9rr7z0g98A)"/>
            </g>
            <path d="M109.029 397.867c-8.66.79-16.104 4.907-20.412 10.768-.329.446-.637.9-.927 1.365h-6.101c.29-.465.598-.919.926-1.365 4.808-6.54 13.517-10.907 23.462-10.907 1.032 0 2.05.047 3.052.139" fill="#FDACAB"/>
            <path d="M138.252 304.274h-65.07c-1.621 0-2.948 1.305-2.948 2.9v12.135c0 1.595 1.327 2.9 2.948 2.9h65.07c1.621 0 2.947-1.305 2.947-2.9v-12.135c0-1.595-1.326-2.9-2.947-2.9" fill="#E75755"/>
        </g>
    </g>
</svg>
