<svg xmlns="http://www.w3.org/2000/svg" width="800" height="600" viewBox="0 0 800 600"><rect width="100%" height="100%" fill="#e2e8f0"/><path fill="#1e293b" d="M177.015 283.025h5.27v28.2h-5.27v-12.32h-13.24v12.32h-5.26v-28.2h5.26v12.13h13.24zm21.36 23.03v-3.37q-2.09.1-3.51.36-1.43.26-2.29.67-.85.41-1.22.96-.38.54-.38 1.19 0 1.27.76 1.81.75.55 1.96.55 1.48 0 2.56-.54t2.12-1.63m-10.18-10.51-.86-1.54q3.45-3.16 8.31-3.16 1.75 0 3.13.58 1.39.57 2.34 1.6.96 1.02 1.46 2.44.49 1.43.49 3.12v12.64h-2.18q-.68 0-1.05-.2-.37-.21-.59-.83l-.43-1.45q-.76.69-1.48 1.2-.72.52-1.5.87t-1.67.54q-.88.18-1.96.18-1.26 0-2.34-.34-1.07-.34-1.85-1.02-.78-.69-1.21-1.7t-.43-2.36q0-.76.26-1.51.25-.75.83-1.43.57-.69 1.49-1.29.91-.61 2.25-1.05 1.33-.45 3.11-.73 1.77-.29 4.06-.35v-1.17q0-2-.86-2.97-.86-.96-2.48-.96-1.17 0-1.94.27t-1.35.61q-.59.34-1.07.62-.48.27-1.06.27-.51 0-.86-.26-.35-.27-.56-.62m24.22 1.52v8.97q.81 1 1.78 1.41.96.41 2.1.41 1.09 0 1.97-.41.87-.41 1.49-1.25.61-.84.94-2.12.33-1.27.33-3.01 0-1.75-.28-2.97t-.81-1.98q-.52-.76-1.27-1.11-.76-.35-1.71-.35-1.5 0-2.56.63-1.05.63-1.98 1.78m-.65-4.97.39 1.85q1.23-1.38 2.79-2.24t3.67-.86q1.63 0 2.99.68 1.35.69 2.34 1.98.98 1.3 1.52 3.2t.54 4.36q0 2.24-.61 4.15-.6 1.92-1.72 3.32t-2.71 2.19-3.56.79q-1.68 0-2.87-.51-1.19-.52-2.12-1.44v8.19h-4.82v-26.54h2.94q.94 0 1.23.88m22.8 4.97v8.97q.82 1 1.78 1.41.97.41 2.1.41 1.09 0 1.97-.41.87-.41 1.49-1.25.61-.84.94-2.12.34-1.27.34-3.01 0-1.75-.29-2.97-.28-1.22-.81-1.98-.52-.76-1.27-1.11t-1.71-.35q-1.5 0-2.55.63-1.06.63-1.99 1.78m-.65-4.97.39 1.85q1.23-1.38 2.79-2.24t3.67-.86q1.64 0 2.99.68 1.36.69 2.34 1.98.99 1.3 1.52 3.2.54 1.9.54 4.36 0 2.24-.61 4.15-.6 1.92-1.72 3.32t-2.71 2.19-3.56.79q-1.68 0-2.87-.51-1.19-.52-2.12-1.44v8.19h-4.82v-26.54h2.95q.93 0 1.22.88m32.3-.88h3.86l-10.9 25.51q-.22.51-.56.77t-1.04.26h-3.59l3.74-8.03-8.09-18.51h4.23q.57 0 .89.28.32.27.48.62l4.25 10.37q.21.53.36 1.06.15.52.28 1.07.18-.55.35-1.08.18-.54.39-1.07l4.02-10.35q.16-.39.52-.64.36-.26.81-.26m34.28-4.01h-12.52v8.34h10.57v4.19h-10.57v11.49h-5.27v-28.2h17.79zm14.1 18.85v-3.37q-2.09.1-3.51.36-1.43.26-2.29.67-.85.41-1.22.96-.38.54-.38 1.19 0 1.27.76 1.81.75.55 1.96.55 1.48 0 2.56-.54t2.12-1.63m-10.18-10.51-.86-1.54q3.45-3.16 8.31-3.16 1.75 0 3.13.58 1.39.57 2.34 1.6.96 1.02 1.46 2.44.49 1.43.49 3.12v12.64h-2.18q-.68 0-1.05-.2-.37-.21-.59-.83l-.43-1.45q-.76.69-1.48 1.2-.72.52-1.5.87t-1.67.54q-.88.18-1.96.18-1.26 0-2.34-.34-1.07-.34-1.85-1.02-.78-.69-1.21-1.7t-.43-2.36q0-.76.26-1.51.25-.75.83-1.43.57-.69 1.49-1.29.91-.61 2.25-1.05 1.33-.45 3.11-.73 1.77-.29 4.06-.35v-1.17q0-2-.86-2.97-.86-.96-2.48-.96-1.17 0-1.94.27t-1.35.61q-.59.34-1.07.62-.48.27-1.06.27-.51 0-.86-.26-.35-.27-.56-.62m24.22 15.68h-4.82v-20.01h2.94q.94 0 1.23.88l.31 1.48q.53-.58 1.11-1.07.57-.49 1.22-.84.66-.35 1.41-.55.75-.21 1.65-.21 1.89 0 3.11 1.02 1.21 1.03 1.82 2.73.47-1 1.17-1.71t1.54-1.16 1.78-.66q.95-.22 1.91-.22 1.65 0 2.94.51t2.16 1.48q.88.97 1.34 2.38.46 1.4.46 3.22v12.73h-4.82v-12.73q0-1.91-.84-2.88-.84-.96-2.45-.96-.74 0-1.38.25-.63.25-1.11.73t-.75 1.2-.27 1.66v12.73h-4.84v-12.73q0-2.01-.81-2.93-.81-.91-2.37-.91-1.05 0-1.96.51-.9.52-1.68 1.42zm28-20.01h4.83v20.01h-4.83zm5.5-5.83q0 .63-.26 1.17-.25.55-.67.96t-.98.65q-.57.24-1.21.24-.63 0-1.18-.24-.56-.24-.97-.65t-.65-.96q-.25-.54-.25-1.17 0-.64.25-1.21.24-.56.65-.97t.97-.65q.55-.25 1.18-.25.64 0 1.21.25.56.24.98.65t.67.97q.26.57.26 1.21m4.31-3.14h4.81v28.98h-4.81zm23.94 8.97h3.86l-10.9 25.51q-.21.51-.55.77t-1.05.26h-3.58l3.74-8.03-8.09-18.51h4.23q.56 0 .89.28.32.27.47.62l4.25 10.37q.22.53.37 1.06.14.52.28 1.07.17-.55.35-1.08.17-.54.39-1.07l4.02-10.35q.15-.39.51-.64.36-.26.81-.26m15.89 0h4.84v20.01h-4.84zm5.5-5.83q0 .63-.25 1.17-.25.55-.67.96t-.99.65q-.56.24-1.21.24-.62 0-1.18-.24-.55-.24-.96-.65t-.65-.96q-.25-.54-.25-1.17 0-.64.25-1.21.24-.56.65-.97t.96-.65q.56-.25 1.18-.25.65 0 1.21.25.57.24.99.65t.67.97q.25.57.25 1.21m8.43 6.71.33 1.58q.6-.6 1.28-1.12.67-.52 1.42-.88t1.61-.56q.86-.21 1.87-.21 1.64 0 2.91.56 1.26.55 2.11 1.56.85 1 1.29 2.4.44 1.39.44 3.07v12.73h-4.82v-12.73q0-1.84-.84-2.84t-2.55-1q-1.25 0-2.34.56-1.09.57-2.07 1.54v14.47h-4.82v-20.01h2.95q.93 0 1.23.88m47.21-9.07h4.62v28.2h-2.69q-.63 0-1.05-.2-.42-.21-.81-.7l-14.72-18.8q.12 1.29.12 2.38v17.32h-4.62v-28.2h2.75q.33 0 .57.03.25.03.43.12.19.09.36.25.18.17.39.44l14.78 18.88q-.06-.68-.09-1.35-.04-.66-.04-1.23zm13.94 15.9h9.09q0-.94-.27-1.77-.26-.83-.79-1.45-.52-.63-1.33-.99t-1.88-.36q-2.09 0-3.29 1.19t-1.53 3.38m12.28 2.9h-12.38q.12 1.54.55 2.66t1.13 1.86q.7.73 1.67 1.09.96.36 2.13.36t2.02-.28q.85-.27 1.48-.6.64-.33 1.11-.6.48-.28.93-.28.6 0 .9.45l1.38 1.76q-.8.93-1.79 1.57-1 .63-2.08 1.01t-2.2.54q-1.12.15-2.18.15-2.08 0-3.88-.69-1.79-.69-3.12-2.05-1.32-1.35-2.08-3.35-.77-2-.77-4.63 0-2.05.67-3.85.66-1.81 1.9-3.14 1.24-1.34 3.02-2.12 1.79-.78 4.03-.78 1.89 0 3.49.61 1.6.6 2.75 1.76t1.8 2.85q.66 1.68.66 3.85 0 1.09-.24 1.47-.23.38-.9.38m29.64-10.61h3.67l-6.36 20.01h-3.86q-.66 0-.91-.86l-3.59-11.56q-.18-.59-.32-1.16-.15-.58-.25-1.16-.11.58-.26 1.18-.15.59-.32 1.18l-3.65 11.52q-.23.86-1.03.86h-3.71l-6.34-20.01h3.85q.52 0 .89.26.37.25.49.64l2.87 10.69q.21.87.38 1.71.16.84.28 1.68.21-.84.46-1.68.24-.84.52-1.71l3.31-10.73q.12-.39.46-.64.34-.26.83-.26h2.12q.51 0 .87.26.36.25.48.64l3.22 10.73q.25.87.47 1.72.23.85.44 1.69.26-1.66.72-3.41l2.95-10.69q.13-.39.49-.64.35-.26.83-.26m35.14-8.19h5.27v28.2h-5.27v-12.32h-13.24v12.32h-5.26v-28.2h5.26v12.13h13.24zm19.64 7.88q2.22 0 4.05.72 1.82.72 3.12 2.05 1.29 1.33 1.99 3.24.71 1.91.71 4.27 0 2.38-.71 4.29-.7 1.91-1.99 3.25-1.3 1.35-3.12 2.07-1.83.72-4.05.72-2.24 0-4.08-.72-1.83-.72-3.13-2.07-1.29-1.34-2-3.25-.72-1.91-.72-4.29 0-2.36.72-4.27.71-1.91 2-3.24 1.3-1.33 3.13-2.05 1.84-.72 4.08-.72m0 16.91q2.5 0 3.7-1.68 1.19-1.68 1.19-4.91 0-3.24-1.19-4.94-1.2-1.69-3.7-1.69-2.54 0-3.75 1.7-1.22 1.71-1.22 4.93 0 3.21 1.22 4.9 1.21 1.69 3.75 1.69m18.37 3.41h-4.82v-20.01h2.95q.93 0 1.23.88l.31 1.48q.52-.58 1.1-1.07.57-.49 1.23-.84.65-.35 1.4-.55.75-.21 1.65-.21 1.89 0 3.11 1.02 1.22 1.03 1.82 2.73.47-1 1.17-1.71t1.54-1.16 1.79-.66q.94-.22 1.9-.22 1.66 0 2.94.51 1.29.51 2.17 1.48t1.33 2.38q.46 1.4.46 3.22v12.73h-4.81v-12.73q0-1.91-.84-2.88-.84-.96-2.46-.96-.74 0-1.37.25-.64.25-1.12.73-.47.48-.75 1.2-.27.72-.27 1.66v12.73h-4.84v-12.73q0-2.01-.81-2.93-.8-.91-2.36-.91-1.06 0-1.96.51-.91.52-1.69 1.42zm31.65-12.3h9.08q0-.94-.26-1.77t-.79-1.45q-.53-.63-1.33-.99-.81-.36-1.89-.36-2.08 0-3.28 1.19t-1.53 3.38m12.28 2.9h-12.38q.12 1.54.55 2.66.42 1.12 1.13 1.86.7.73 1.66 1.09.97.36 2.14.36t2.02-.28q.85-.27 1.48-.6t1.11-.6q.48-.28.93-.28.6 0 .89.45l1.39 1.76q-.8.93-1.8 1.57-.99.63-2.07 1.01t-2.21.54q-1.12.15-2.17.15-2.09 0-3.88-.69t-3.12-2.05q-1.33-1.35-2.09-3.35t-.76-4.63q0-2.05.67-3.85.66-1.81 1.9-3.14 1.24-1.34 3.02-2.12t4.03-.78q1.89 0 3.49.61 1.6.6 2.75 1.76t1.8 2.85q.65 1.68.65 3.85 0 1.09-.23 1.47t-.9.38"/></svg>